# xmcd
#
# Track frame offsets:
#	150
#	15252
#	35432
#	52705
#	67512
#	87552
#	106375
#	130012
#
# Disc length: 1909 seconds
#
# Revision: 1
# Processed by: cddbd v1.5.1PL0 Copyright (c) Steve Scherf et al.
# Submitted via: CDex 1.50Beta5
#
DISCID=51077308
DTITLE=T.C.R.横浜銀蝿R.S. - 熱狂、千葉ライヴ1
DYEAR=1900
DGENRE=Rock
TTITLE0=ぶっちぎりRock'n Roll
TTITLE1=羯徒毘路薫'狼琉
TTITLE2=$百萬BABY
TTITLE3=ヒップフリフリRock'n Roll
TTITLE4=JohnnyはRockがお好き
TTITLE5=翔んでるセブンティーン(ツッパリHigh School Rock'n Roll)
TTITLE6=Happy Birthday
TTITLE7=横須賀Baby
EXTD=
EXTT0=
EXTT1=
EXTT2=
EXTT3=
EXTT4=
EXTT5=
EXTT6=
EXTT7=
PLAYORDER=
